<?xml version="1.0" encoding="UTF-8"?>
<svg width="1018px" height="1018px" viewBox="0 0 1018 1018" version="1.1" xmlns="http://www.w3.org/2000/svg" xmlns:xlink="http://www.w3.org/1999/xlink">
    <!-- Generator: Sketch 64 (93537) - https://sketch.com -->
    <title>accessibility copy</title>
    <desc>Created with Sketch.</desc>
    <g id="Page-1" stroke="none" stroke-width="1" fill="none" fill-rule="evenodd">
        <g id="Group-23-Copy" transform="translate(-5091.000000, 0.000000)" fill-opacity="0.7" fill="#FFFFFF" fill-rule="nonzero">
            <g id="accessibility-copy">
                <g transform="translate(5091.000000, 0.000000)" id="Shape">
                    <path d="M509,0 C227.887062,0 0,227.887062 0,509 C0,790.112938 227.887062,1018 509,1018 C790.112938,1018 1018,790.112938 1018,509 C1017.6821,228.018849 789.981151,0.317905171 509,0 Z M509,984.035218 C246.645293,984.035218 33.9647822,771.354707 33.9647822,509 C33.9647822,246.645293 246.645293,33.9647822 509,33.9647822 C771.354707,33.9647822 984.035218,246.645293 984.035218,509 C983.736039,771.230682 771.230682,983.736039 509,984.035218 Z"></path>
                    <path d="M509.5,68 C265.666283,68 68,265.666283 68,509.5 C68,753.333717 265.666283,951 509.5,951 C753.333717,951 951,753.333717 951,509.5 C950.719274,265.782659 753.217341,68.2807268 509.5,68 Z M509.5,917.074707 C284.402705,917.074707 101.925293,734.597295 101.925293,509.5 C101.925293,284.402705 284.402705,101.925293 509.5,101.925293 C734.597295,101.925293 917.074707,284.402705 917.074707,509.5 C916.812678,734.488669 734.488669,916.812678 509.5,917.074707 Z"></path>
                    <path d="M509.5,360 C566.109187,360 612,313.885329 612,257 C612,200.114671 566.109187,154 509.5,154 C452.890813,154 407,200.114671 407,257 C407.056501,313.861795 452.914233,359.943223 509.5,360 Z M509.5,188.963303 C547.326415,188.963303 577.990783,219.635905 577.990783,257.472477 C577.990783,295.309049 547.326415,325.981651 509.5,325.981651 C471.673585,325.981651 441.009217,295.309049 441.009217,257.472477 C441.009217,219.635905 471.673585,188.963303 509.5,188.963303 Z"></path>
                    <path d="M746.062193,374.165946 L745.789913,374.165946 L567.106548,390.102268 C561.014296,390.654322 554.916372,390.930349 548.812775,390.930349 L469.307186,390.930349 C463.214934,390.930349 457.128354,390.659955 451.047448,390.119168 L272.057768,374.165946 C243.946898,371.972599 219.368075,392.825069 217.159432,420.741243 C214.950788,448.657416 235.94869,473.066005 264.059561,475.259351 L408.486772,488.272043 C417.249918,489.058451 423.964376,496.349236 423.972664,505.087145 L423.972664,543.956224 C423.978661,552.405877 422.385397,560.781373 419.275844,568.64654 L337.38781,775.751134 C325.97335,801.361961 337.626575,831.312797 363.41602,842.6482 C389.205465,853.983603 419.365189,842.411089 430.779649,816.800262 L508.821736,627.30505 L587.595574,817.30725 C599.342492,842.274721 629.021085,853.351398 654.419145,842.247218 C679.817207,831.143039 691.632183,801.925133 681.021448,776.460918 L598.844117,568.595841 C595.742635,560.740143 594.149585,552.377239 594.147297,543.939325 L594.147297,505.070245 C594.155585,496.332336 600.870043,489.041551 609.633189,488.255144 L753.822156,475.259351 C781.937725,473.131337 802.992769,448.771929 800.849914,420.85109 C798.70706,392.930251 774.177762,372.021033 746.062193,374.149046 L746.062193,374.165946 Z M751.079703,441.778985 L606.601706,454.794373 C580.252014,457.046322 560.047293,478.990155 560.144718,505.250128 L560.144718,544.12726 C560.137941,556.813968 562.534515,569.388748 567.209449,581.195759 L649.705074,789.763119 C653.714937,798.206921 650.071787,808.279631 641.567867,812.261146 C633.063946,816.242661 622.919521,812.625266 618.909658,804.181464 L540.278355,614.646996 C535.063244,602.101291 522.743367,593.916546 509.074376,593.916546 C495.405385,593.916546 483.085508,602.101291 477.870397,614.646996 L399.460399,803.674371 C397.022559,809.427018 391.590585,813.377719 385.331487,813.950391 C379.072391,814.523065 373.004792,811.624512 369.549277,806.411074 C366.093764,801.197635 365.812692,794.517756 368.818193,789.036285 L451.024421,581.128147 C455.667489,569.332435 458.03517,556.774963 458.004034,544.110357 L458.004034,505.233225 C458.11923,478.960289 437.909824,456.996659 411.547046,454.743663 L266.83072,441.778985 C257.428931,441.120844 250.344599,433.01954 251.007426,423.684216 C251.670253,414.348892 259.829237,407.314643 269.231026,407.972784 L447.977223,423.912408 C455.058978,424.543456 462.157755,424.858981 469.273556,424.858981 L548.807102,424.858981 C555.922903,424.858981 563.021681,424.543456 570.103435,423.912408 L748.764514,407.972784 C753.263573,407.619061 757.718523,409.064563 761.139054,411.987963 C764.559584,414.911363 766.662237,419.070398 766.979603,423.540539 C767.349541,428.062242 765.873409,432.541809 762.883171,435.971849 C759.892933,439.40189 755.639607,441.494465 751.079703,441.778985 Z"></path>
                </g>
            </g>
        </g>
    </g>
</svg>
