<?xml version="1.0" encoding="UTF-8"?>
<svg width="163px" height="163px" viewBox="0 0 163 163" version="1.1" xmlns="http://www.w3.org/2000/svg" xmlns:xlink="http://www.w3.org/1999/xlink">
    <!-- Generator: Sketch 64 (93537) - https://sketch.com -->
    <title>Group 22</title>
    <desc>Created with Sketch.</desc>
    <g id="Page-1" stroke="none" stroke-width="1" fill="none" fill-rule="evenodd">
        <g id="Group-22" fill="#ffffff" fill-rule="nonzero" fill-opacity="0.7">
            <g id="coding-copy">
                <path d="M13.5833333,163 L149.416667,163 C156.906517,163 163,156.906517 163,149.416667 L163,146.7 L162.980983,146.7 C162.980983,146.379433 162.94295,146.05615 162.82885,145.74645 L146.7,102.7389 L146.7,13.5833333 C146.7,6.09348333 140.606517,0 133.116667,0 L29.8833333,0 C22.3934833,0 16.3,6.09348333 16.3,13.5833333 L16.3,102.7389 L0.17115,145.74645 C0.05705,146.05615 0.0190166667,146.379433 0.0190166667,146.7 L1.93030777e-14,146.7 L1.93030777e-14,149.416667 C1.93030777e-14,156.906517 6.09348333,163 13.5833333,163 Z M149.416667,157.566667 L13.5833333,157.566667 C9.08996667,157.566667 5.43333333,153.910033 5.43333333,149.416667 L58.6419667,149.416667 L60.56265,151.33735 C61.0706667,151.848083 61.7634167,152.133333 62.4833333,152.133333 L100.516667,152.133333 C101.236583,152.133333 101.929333,151.848083 102.43735,151.33735 L104.358033,149.416667 L157.566667,149.416667 C157.566667,153.910033 153.910033,157.566667 149.416667,157.566667 Z M29.8833333,5.43333333 L133.116667,5.43333333 C137.610033,5.43333333 141.266667,9.08996667 141.266667,13.5833333 L141.266667,100.516667 L21.7333333,100.516667 L21.7333333,13.5833333 C21.7333333,9.08996667 25.3899667,5.43333333 29.8833333,5.43333333 Z M20.8993167,105.95 L142.100683,105.95 L156.363183,143.983333 L103.233333,143.983333 C102.513417,143.983333 101.820667,144.268583 101.31265,144.779317 L99.3919667,146.7 L63.6080333,146.7 L61.68735,144.779317 C61.1793333,144.268583 60.4865833,143.983333 59.7666667,143.983333 L6.63681667,143.983333 L20.8993167,105.95 Z" id="Shape"></path>
                <polygon id="Path" points="19.0166667 133.116667 29.8833333 133.116667 29.8833333 138.55 19.0166667 138.55"></polygon>
                <polygon id="Path" points="38.0333333 133.116667 48.9 133.116667 48.9 138.55 38.0333333 138.55"></polygon>
                <polygon id="Path" points="57.05 133.116667 105.95 133.116667 105.95 138.55 57.05 138.55"></polygon>
                <polygon id="Path" points="114.1 133.116667 124.966667 133.116667 124.966667 138.55 114.1 138.55"></polygon>
                <polygon id="Path" points="133.116667 133.116667 143.983333 133.116667 143.983333 138.55 133.116667 138.55"></polygon>
                <polygon id="Path" points="21.7333333 122.25 38.0333333 122.25 38.0333333 127.683333 21.7333333 127.683333"></polygon>
                <polygon id="Path" points="46.1833333 122.25 57.05 122.25 57.05 127.683333 46.1833333 127.683333"></polygon>
                <polygon id="Path" points="65.2 122.25 76.0666667 122.25 76.0666667 127.683333 65.2 127.683333"></polygon>
                <polygon id="Path" points="84.2166667 122.25 95.0833333 122.25 95.0833333 127.683333 84.2166667 127.683333"></polygon>
                <polygon id="Path" points="103.233333 122.25 114.1 122.25 114.1 127.683333 103.233333 127.683333"></polygon>
                <polygon id="Path" points="122.25 122.25 141.266667 122.25 141.266667 127.683333 122.25 127.683333"></polygon>
                <polygon id="Path" points="38.0333333 111.383333 43.4666667 111.383333 43.4666667 116.816667 38.0333333 116.816667"></polygon>
                <polygon id="Path" points="27.1666667 111.383333 32.6 111.383333 32.6 116.816667 27.1666667 116.816667"></polygon>
                <polygon id="Path" points="51.6166667 111.383333 62.4833333 111.383333 62.4833333 116.816667 51.6166667 116.816667"></polygon>
                <polygon id="Path" points="70.6333333 111.383333 81.5 111.383333 81.5 116.816667 70.6333333 116.816667"></polygon>
                <polygon id="Path" points="89.65 111.383333 100.516667 111.383333 100.516667 116.816667 89.65 116.816667"></polygon>
                <polygon id="Path" points="108.666667 111.383333 119.533333 111.383333 119.533333 116.816667 108.666667 116.816667"></polygon>
                <polygon id="Path" points="127.683333 111.383333 138.55 111.383333 138.55 116.816667 127.683333 116.816667"></polygon>
                <path d="M29.8833333,95.0833333 L133.116667,95.0833333 C134.616267,95.0833333 135.833333,93.8662667 135.833333,92.3666667 L135.833333,13.5833333 C135.833333,12.0837333 134.616267,10.8666667 133.116667,10.8666667 L29.8833333,10.8666667 C28.3837333,10.8666667 27.1666667,12.0837333 27.1666667,13.5833333 L27.1666667,92.3666667 C27.1666667,93.8662667 28.3837333,95.0833333 29.8833333,95.0833333 Z M32.6,16.3 L130.4,16.3 L130.4,89.65 L32.6,89.65 L32.6,16.3 Z" id="Shape"></path>
                <path d="M46.9793167,22.5293167 L38.8293167,30.6793167 C37.7671,31.7415333 37.7671,33.4584667 38.8293167,34.5206833 L46.9793167,42.6706833 L50.8206833,38.8293167 L44.5913667,32.6 L50.8206833,26.3706833 L46.9793167,22.5293167 Z" id="Path"></path>
                <path d="M77.98735,22.5293167 L74.1459833,26.3706833 L80.3753,32.6 L74.1459833,38.8293167 L77.98735,42.6706833 L86.13735,34.5206833 C87.1995667,33.4584667 87.1995667,31.7415333 86.13735,30.6793167 L77.98735,22.5293167 Z" id="Path"></path>
                <path d="M82.2959833,60.56265 L74.1459833,68.71265 C73.0837667,69.7748667 73.0837667,71.4918 74.1459833,72.5540167 L82.2959833,80.7040167 L86.13735,76.86265 L79.9080333,70.6333333 L86.13735,64.4040167 L82.2959833,60.56265 Z" id="Path"></path>
                <path d="M113.304017,60.56265 L109.46265,64.4040167 L115.691967,70.6333333 L109.46265,76.86265 L113.304017,80.7040167 L121.454017,72.5540167 C122.516233,71.4918 122.516233,69.7748667 121.454017,68.71265 L113.304017,60.56265 Z" id="Path"></path>
                <polygon id="Path" transform="translate(96.385975, 70.660500) rotate(-63.434949) translate(-96.385975, -70.660500) " points="87.2786269 67.9451309 105.493323 67.9451309 105.493323 73.3758691 87.2786269 73.3758691"></polygon>
                <polygon id="Path" points="65.2 76.0666667 70.6333333 76.0666667 70.6333333 81.5 65.2 81.5"></polygon>
                <polygon id="Path" points="54.3333333 76.0666667 59.7666667 76.0666667 59.7666667 81.5 54.3333333 81.5"></polygon>
                <polygon id="Path" points="43.4666667 76.0666667 48.9 76.0666667 48.9 81.5 43.4666667 81.5"></polygon>
                <path d="M103.233333,35.3166667 L97.8,35.3166667 L97.8,40.75 L100.516667,40.75 L100.516667,48.9 L105.95,48.9 L105.95,38.0333333 C105.95,36.5337333 104.732933,35.3166667 103.233333,35.3166667 Z" id="Path"></path>
                <polygon id="Path" points="97.8 24.45 103.233333 24.45 103.233333 29.8833333 97.8 29.8833333"></polygon>
            </g>
        </g>
    </g>
</svg>
