<?xml version="1.0" encoding="UTF-8"?>
<svg width="163px" height="159px" viewBox="0 0 163 159" version="1.1" xmlns="http://www.w3.org/2000/svg" xmlns:xlink="http://www.w3.org/1999/xlink">
    <!-- Generator: Sketch 64 (93537) - https://sketch.com -->
    <title>Group 20</title>
    <desc>Created with Sketch.</desc>
    <g id="Page-1" stroke="none" stroke-width="1" fill="none" fill-rule="evenodd">
        <g id="Group-20" fill="#000000" fill-rule="nonzero">
            <g id="talk-copy">
                <path d="M160.370968,15.7483871 L131.451613,15.7483871 C118.406581,15.7483871 107.790323,26.3121566 107.790323,39.2983871 L107.790323,60.2317204 C100.542512,60.2317204 94.6451613,66.1013329 94.6451613,73.3150538 L94.6451613,81.1650538 C94.6451613,81.3349837 94.6900911,81.4946923 94.695226,81.662067 C93.8569649,81.3592595 92.9596539,81.1650538 92.016129,81.1650538 C89.9891553,81.1650538 88.1573052,81.952098 86.7580645,83.2054915 C85.3588239,81.9495429 83.5269737,81.1650538 81.5,81.1650538 C79.4730263,81.1650538 77.6411761,81.952098 76.2419355,83.2054915 C74.8426948,81.9495429 73.0108447,81.1650538 70.983871,81.1650538 C68.9568973,81.1650538 67.1250471,81.952098 65.7258065,83.2054915 C64.3265658,81.9495429 62.4947156,81.1650538 60.4677419,81.1650538 C57.9786337,81.1650538 55.782211,82.3405095 54.3367566,84.1381902 L39.4354839,56.9481106 L39.4354839,31.2388493 C48.3405603,29.9624577 55.2096774,22.3398829 55.2096774,13.1317204 L55.2096774,2.66505376 C55.2096774,1.21745456 54.0312341,0.0483870968 52.5806452,0.0483870968 L2.62903226,0.0483870968 C1.17844333,0.0483870968 0,1.21745456 0,2.66505376 L0,157.048387 L5.25806452,157.048387 L5.25806452,141.348387 L36.8064516,141.348387 C38.2570405,141.348387 39.4354839,140.17932 39.4354839,138.73172 L39.4354839,115.18172 C39.4354839,113.734121 38.2570405,112.565054 36.8064516,112.565054 C30.4572362,112.565054 25.1465394,108.06127 23.9270178,102.098387 L36.8064516,102.098387 C38.2570405,102.098387 39.4354839,100.92932 39.4354839,99.4817204 L39.4354839,89.0150538 L52.5806452,89.0150538 L52.5806452,105.196735 C51.7552214,104.902871 50.8771657,104.715054 49.9516129,104.715054 C45.6036967,104.715054 42.0645161,108.237588 42.0645161,112.565054 L42.0645161,136.115054 C42.0645161,136.811383 42.3405133,137.475771 42.8347404,137.965119 L52.5806452,147.665184 L52.5806452,157.048387 L57.8387097,157.048387 L57.8387097,146.58172 C57.8387097,145.885391 57.5627126,145.221003 57.0684854,144.731655 L47.3225806,135.03159 L47.3225806,112.565054 C47.3225806,111.121288 48.5035912,109.948387 49.9516129,109.948387 C51.3996346,109.948387 52.5806452,111.121288 52.5806452,112.565054 L52.5806452,130.88172 L57.8387097,130.88172 L57.8387097,89.0150538 C57.8387097,87.5712877 59.0197203,86.3983871 60.4677419,86.3983871 C61.9157636,86.3983871 63.0967742,87.5712877 63.0967742,89.0150538 L63.0967742,123.03172 L68.3548387,123.03172 L68.3548387,89.0150538 C68.3548387,87.5712877 69.5358493,86.3983871 70.983871,86.3983871 C72.4318926,86.3983871 73.6129032,87.5712877 73.6129032,89.0150538 L73.6129032,123.03172 L78.8709677,123.03172 L78.8709677,89.0150538 C78.8709677,87.5712877 80.0519783,86.3983871 81.5,86.3983871 C82.9480217,86.3983871 84.1290323,87.5712877 84.1290323,89.0150538 L84.1290323,123.03172 L89.3870968,123.03172 L89.3870968,89.0150538 C89.3870968,87.5712877 90.5681074,86.3983871 92.016129,86.3983871 C93.4641507,86.3983871 94.6451613,87.5712877 94.6451613,89.0150538 L94.6451613,157.048387 L99.9032258,157.048387 L99.9032258,91.564004 C102.106067,93.2249741 104.819824,94.2483871 107.790323,94.2483871 L107.790323,109.736294 C107.790323,120.532599 113.01116,130.787173 121.755773,137.166576 L148.298986,156.541152 C148.750851,156.873346 149.295142,157.048387 149.854839,157.048387 L160.370968,157.048387 C161.821557,157.048387 163,155.87932 163,154.43172 L163,18.3650538 C163,16.9174546 161.821557,15.7483871 160.370968,15.7483871 Z M5.25806452,5.28172043 L49.9516129,5.28172043 L49.9516129,13.1317204 C49.9516129,20.3454413 44.0542624,26.2150538 36.8064516,26.2150538 L5.25806452,26.2150538 L5.25806452,5.28172043 Z M36.8064516,83.7817204 C35.3558627,83.7817204 34.1774194,84.9507879 34.1774194,86.3983871 L34.1774194,96.8650538 L21.0322581,96.8650538 C19.5816691,96.8650538 18.4032258,98.0341212 18.4032258,99.4817204 C18.4032258,108.694994 25.2697753,116.338011 34.1774194,117.613125 L34.1774194,136.115054 L5.25806452,136.115054 L5.25806452,31.4483871 L34.1774194,31.4483871 L34.1774194,57.6150538 C34.1774194,58.0520168 34.2878183,58.4838689 34.498346,58.8684472 L48.1505717,83.7817204 L36.8064516,83.7817204 Z M131.451613,20.9817204 L157.741935,20.9817204 L157.741935,39.2983871 L126.193548,39.2983871 C124.742959,39.2983871 123.564516,40.4674546 123.564516,41.9150538 L123.564516,48.8936835 L113.048387,62.8509423 L113.048387,39.2983871 C113.048387,29.2009668 121.303908,20.9817204 131.451613,20.9817204 Z M99.9032258,81.1650538 L99.9032258,73.3150538 C99.9032258,68.9875879 103.442406,65.4650538 107.790323,65.4650538 L107.790323,89.0150538 C103.442406,89.0150538 99.9032258,85.4925197 99.9032258,81.1650538 Z M150.714923,151.815054 L124.866195,132.946434 C117.465623,127.548281 113.048387,118.871629 113.048387,109.736294 L113.048387,71.5697574 L128.296261,51.3353092 C128.63901,50.8817365 128.822581,50.3323389 128.822581,49.7650538 L128.822581,44.5317204 L157.741935,44.5317204 L157.741935,151.815054 L150.714923,151.815054 Z" id="Shape"></path>
                <path d="M12.6658228,60.0483871 L9,64.0594675 C11.9405061,67.2755339 15.8468355,69.0483871 20,69.0483871 C24.1531645,69.0483871 28.0594939,67.2755339 31,64.0594675 L27.3341772,60.0483871 C23.2898735,64.4708248 16.7101265,64.4708248 12.6658228,60.0483871 Z" id="Path"></path>
                <path d="M144.5,69.0483871 C140.365478,69.0483871 137,72.4138655 137,76.5483871 C137,80.6829087 140.365478,84.0483871 144.5,84.0483871 C148.634522,84.0483871 152,80.6829087 152,76.5483871 C152,72.4138655 148.634522,69.0483871 144.5,69.0483871 Z M144.5,79.0483871 C143.123047,79.0483871 142,77.9277815 142,76.5483871 C142,75.1689927 143.123047,74.0483871 144.5,74.0483871 C145.876953,74.0483871 147,75.1689927 147,76.5483871 C147,77.9277815 145.876953,79.0483871 144.5,79.0483871 Z" id="Shape"></path>
                <polygon id="Path" points="63 153.048387 68 153.048387 68 158.048387 63 158.048387"></polygon>
                <polygon id="Path" points="73 153.048387 78 153.048387 78 158.048387 73 158.048387"></polygon>
                <polygon id="Path" points="85 153.048387 90 153.048387 90 158.048387 85 158.048387"></polygon>
            </g>
        </g>
    </g>
</svg>