<?xml version="1.0" encoding="UTF-8"?> <svg xmlns="http://www.w3.org/2000/svg" xmlns:xlink="http://www.w3.org/1999/xlink" width="495px" height="56px" viewBox="0 0 495 56"> <!-- Generator: Sketch 62 (91390) - https://sketch.com --> <title>Group 2</title> <desc>Created with Sketch.</desc> <g id="Page-1" stroke="none" stroke-width="1" fill="none" fill-rule="evenodd"> <g id="1" transform="translate(-1236.000000, -919.000000)"> <g id="Group-2" transform="translate(1236.000000, 919.000000)"> <g id="Group-19-Copy-2" transform="translate(0.000000, 14.000000)"> <g id="Group-2-Copy"> <ellipse id="Oval" fill="#D27297" cx="9.39166667" cy="9.69230769" rx="9.39166667" ry="9.28846154"></ellipse> <rect id="Rectangle" fill="#4F83F4" x="22.05" y="0.403846154" width="26.95" height="18.5769231" rx="4"></rect> <rect id="Rectangle-Copy" fill="#000000" x="0" y="23.0192308" width="31.85" height="18.5769231" rx="4"></rect> <rect id="Rectangle-Copy-2" fill="#FCB614" x="35.1166667" y="23.0192308" width="13.8833333" height="18.5769231" rx="4"></rect> </g> </g> <g id="Group-14-Copy-9" transform="translate(82.000000, 0.000000)" fill="#000000" fill-rule="nonzero"> <g id="Group-2-Copy-12"> <g id="Group"> <path d="M363.490852,54.5127674 L363.490852,5.62061771 L359.247782,5.62061771 L359.247782,54.5127674 L363.490852,54.5127674 Z M396.15736,54.5127674 L396.15736,9.5032296 L412.446436,9.5032296 L412.446436,5.62061771 L375.661171,5.62061771 L375.661171,9.5032296 L391.914289,9.5032296 L391.914289,54.5127674 L396.15736,54.5127674 Z" id="IT"></path> <path d="M6.99967567,12.3000734 C8.41403256,12.3000734 9.63061921,12.0364392 10.6494356,11.5091709 C11.668252,10.9819027 12.4413539,10.2569088 12.9687412,9.33418929 C13.4961285,8.4114698 13.7598222,7.37490829 13.7598222,6.22450477 C13.7598222,5.09806799 13.4961285,4.07348985 12.9687412,3.15077036 C12.4413539,2.22805087 11.6742451,1.4970653 10.6674147,0.957813646 C9.6605844,0.418561996 8.44999079,0.14893617 7.03563389,0.14893617 C5.6692213,0.14893617 4.48259984,0.418561996 3.47576951,0.957813646 C2.46893917,1.4970653 1.70782339,2.22805087 1.19242215,3.15077036 C0.677020906,4.07348985 0.419320285,5.09806799 0.419320285,6.22450477 C0.419320285,7.35094155 0.677020906,8.37551969 1.19242215,9.29823918 C1.70782339,10.2209587 2.46893917,10.9519442 3.47576951,11.4911959 C4.48259984,12.0304475 5.65723523,12.3000734 6.99967567,12.3000734 Z M12.6810754,53.8224505 L12.6810754,16.5421864 L12.6810754,16.5421864 L1.42615062,16.5421864 L1.42615062,53.8224505 L12.6810754,53.8224505 Z M35.3152377,53.8224505 L35.3152377,35.380044 C35.3152377,33.2709709 35.6748199,31.4854488 36.3939845,30.0234776 C37.113149,28.5615065 38.072035,27.4710198 39.2706426,26.7520176 C40.4692501,26.0330154 41.7877184,25.6735143 43.2260474,25.6735143 C45.3595688,25.6735143 47.0256333,26.344583 48.2242409,27.6867205 C49.4228484,29.0288579 50.0221522,31.1618978 50.0221522,34.0858401 L50.0221522,34.0858401 L50.0221522,53.8224505 L61.2770769,53.8224505 L61.2770769,33.8341893 C61.2770769,29.9515774 60.7377036,26.6321839 59.6589568,23.8760088 C58.58021,21.1198337 56.9321246,19.0107606 54.7147007,17.5487894 C52.4972767,16.0868183 49.7225003,15.3558327 46.3903713,15.3558327 C44.7362929,15.3558327 43.154131,15.5895084 41.6438855,16.0568599 C40.13364,16.5242113 38.7852065,17.177305 37.598585,18.0161409 C36.4119636,18.8549768 35.4710567,19.8256297 34.7758643,20.9280998 L34.7758643,20.9280998 L34.7758643,16.5421864 L24.0603129,16.5421864 L24.0603129,53.8224505 L35.3152377,53.8224505 Z M89.916263,55.0088041 C93.248392,55.0088041 96.2628899,54.3317437 98.9597569,52.9776229 C101.656624,51.6235021 103.874048,49.742113 105.612029,47.3334556 C107.35001,44.9247982 108.518652,42.1746148 109.117956,39.0829054 L109.117956,39.0829054 L97.7191981,39.0829054 C97.2876994,40.4010761 96.6883956,41.4735877 95.9212868,42.3004402 C95.1541779,43.1272927 94.2672084,43.7264612 93.260378,44.0979457 C92.2535477,44.4694302 91.1508288,44.6551724 89.9522212,44.6551724 C88.48992,44.6551724 87.1175144,44.2836879 85.8350043,43.540719 C84.5524943,42.7977501 83.5156987,41.7132551 82.7246178,40.287234 C81.9335368,38.861213 81.5379963,37.1535828 81.5379963,35.1643434 C81.5379963,33.2230374 81.9275438,31.5453656 82.7066387,30.131328 C83.4857336,28.7172903 84.5225291,27.638787 85.8170252,26.895818 C87.1115214,26.1528491 88.48992,25.7813646 89.9522212,25.7813646 C91.7741047,25.7813646 93.3562666,26.1828075 94.6987071,26.9856933 C96.0411475,27.7885791 97.0479778,29.0288579 97.7191981,30.7065297 L97.7191981,30.7065297 L109.117956,30.7065297 C108.470708,27.7586207 107.278093,25.128271 105.540112,22.8154806 C103.802131,20.5026901 101.596693,18.6812179 98.9237986,17.3510638 C96.2509038,16.0209098 93.248392,15.3558327 89.916263,15.3558327 C86.1526353,15.3558327 82.7905412,16.2485938 79.8299806,18.0341159 C76.8694199,19.8196381 74.5561074,22.2282954 72.8900429,25.260088 C71.2239784,28.2918807 70.3909462,31.6052825 70.3909462,35.2002935 C70.3909462,38.7953045 71.2239784,42.1087063 72.8900429,45.1404989 C74.5561074,48.1722915 76.8694199,50.5749572 79.8299806,52.348496 C82.7905412,54.1220347 86.1526353,55.0088041 89.916263,55.0088041 Z M129.055251,53.8224505 L129.055251,3.16874541 L117.800326,3.16874541 L117.800326,53.8224505 L129.055251,53.8224505 Z M157.946145,55.0088041 C161.422107,55.0088041 164.508521,54.3856689 167.205388,53.1393984 C169.902255,51.8931279 172.035776,49.8859134 173.605952,47.117755 C175.176128,44.3495965 175.961216,40.7965273 175.961216,36.4585473 L175.961216,36.4585473 L175.961216,16.5421864 L164.778208,16.5421864 L164.778208,36.0990462 C164.778208,37.8965517 164.544479,39.4244314 164.077022,40.6826853 C163.609565,41.9409391 162.866429,42.9115921 161.847612,43.5946442 C160.828796,44.2776963 159.516321,44.6192223 157.910186,44.6192223 C155.560916,44.6192223 153.834921,43.8942284 152.732202,42.4442406 C151.629483,40.9942529 151.078124,38.8791881 151.078124,36.0990462 L151.078124,36.0990462 L151.078124,16.5421864 L139.895115,16.5421864 L139.895115,36.4585473 C139.895115,40.7965273 140.680203,44.3495965 142.250379,47.117755 C143.820555,49.8859134 145.948083,51.8931279 148.632964,53.1393984 C151.317845,54.3856689 154.422239,55.0088041 157.946145,55.0088041 Z M201.184371,55.0447542 C204.30075,55.0447542 207.093506,54.5774028 209.562637,53.6426999 C212.031769,52.7079971 213.979506,51.281976 215.405849,49.3646368 C216.832192,47.4472976 217.545363,45.0865737 217.545363,42.2824652 C217.545363,39.9097579 217.06592,37.9624603 216.107034,36.4405723 C215.148148,34.9186843 213.781736,33.726339 212.007797,32.8635363 C210.233857,32.0007337 207.980475,31.329665 205.24765,30.8503302 C205.007929,30.8023967 204.756221,30.7544632 204.492527,30.7065297 C204.228834,30.6585962 203.977126,30.6226461 203.737405,30.5986794 C201.6758,30.2871118 200.201512,30.0055026 199.314543,29.7538518 C198.427573,29.502201 197.834263,29.1906334 197.534611,28.8191489 C197.234959,28.4476645 197.085133,27.9024211 197.085133,27.1834189 C197.085133,26.6561506 197.21698,26.1887992 197.480673,25.7813646 C197.744367,25.3739301 198.151893,25.0563708 198.703253,24.8286867 C199.254612,24.6010027 199.973777,24.4871607 200.860747,24.4871607 C201.867577,24.4871607 202.706602,24.6309611 203.377822,24.918562 C204.049043,25.2061629 204.558451,25.6195891 204.906047,26.1588408 C205.253643,26.6980924 205.451413,27.315236 205.499358,28.0102715 L205.499358,28.0102715 L216.502575,28.0821717 C216.502575,25.565664 215.843341,23.3427488 214.524872,21.4134263 C213.206404,19.4841037 211.360549,17.9921741 208.987306,16.9376376 C206.614063,15.883101 203.881238,15.3558327 200.78883,15.3558327 C197.696423,15.3558327 195.0475,15.8351675 192.842062,16.7938371 C190.636624,17.7525067 188.952581,19.136586 187.789931,20.9460748 C186.627282,22.7555637 186.045957,24.9305454 186.045957,27.4710198 C186.045957,29.9875275 186.645261,32.090609 187.843869,33.7802641 C189.042476,35.4699193 190.642617,36.7641233 192.644292,37.662876 C194.645966,38.5616288 196.977258,39.1787723 199.638167,39.5143067 C201.172384,39.7060406 202.388971,39.9337246 203.287927,40.1973588 C204.186882,40.4609929 204.864096,40.8085106 205.319567,41.239912 C205.775037,41.6713133 206.002773,42.2345317 206.002773,42.9295671 C206.002773,43.6006359 205.846954,44.1758376 205.535316,44.6551724 C205.223678,45.1345072 204.720263,45.5119834 204.02507,45.7876009 C203.329878,46.0632184 202.418936,46.2010271 201.292245,46.2010271 C200.045693,46.2010271 199.002905,46.0092932 198.16388,45.6258254 C197.324854,45.2423575 196.689592,44.7090976 196.258094,44.0260455 C195.826595,43.3429934 195.586873,42.5460993 195.538929,41.6353632 L195.538929,41.6353632 L184.715503,41.5634629 C184.715503,43.9122035 185.314807,46.1111519 186.513414,48.1603081 C187.712022,50.2094644 189.551884,51.8691612 192.033002,53.1393984 C194.51412,54.4096356 197.564576,55.0447542 201.184371,55.0447542 Z M231.909134,12.3000734 C233.323491,12.3000734 234.540077,12.0364392 235.558894,11.5091709 C236.57771,10.9819027 237.350812,10.2569088 237.878199,9.33418929 C238.405587,8.4114698 238.66928,7.37490829 238.66928,6.22450477 C238.66928,5.09806799 238.405587,4.07348985 237.878199,3.15077036 C237.350812,2.22805087 236.583703,1.4970653 235.576873,0.957813646 C234.570042,0.418561996 233.359449,0.14893617 231.945092,0.14893617 C230.578679,0.14893617 229.392058,0.418561996 228.385228,0.957813646 C227.378397,1.4970653 226.617281,2.22805087 226.10188,3.15077036 C225.586479,4.07348985 225.328778,5.09806799 225.328778,6.22450477 C225.328778,7.35094155 225.586479,8.37551969 226.10188,9.29823918 C226.617281,10.2209587 227.378397,10.9519442 228.385228,11.4911959 C229.392058,12.0304475 230.566693,12.3000734 231.909134,12.3000734 Z M237.590533,53.8224505 L237.590533,16.5421864 L237.590533,16.5421864 L226.335609,16.5421864 L226.335609,53.8224505 L237.590533,53.8224505 Z M269.933417,53.8224505 L284.604373,16.5421864 L272.594326,16.5421864 L265.762263,35.3081438 L264.79139,39.7659574 L263.748602,35.3081438 L256.916539,16.5421864 L244.94245,16.5421864 L259.577448,53.8224505 L269.933417,53.8224505 Z M308.137491,55.0088041 C311.325787,55.0088041 314.214431,54.3736855 316.803424,53.1034483 C319.392416,51.8332111 321.513951,50.1735143 323.16803,48.124358 C324.822108,46.0752018 325.924827,43.9002201 326.476186,41.5994131 L326.476186,41.5994131 L314.466139,41.5994131 C314.178473,42.342382 313.764953,42.9954757 313.22558,43.5586941 C312.686207,44.1219124 311.973035,44.5593055 311.086066,44.8708731 C310.199096,45.1824407 309.144321,45.3382245 307.921742,45.3382245 C306.243691,45.3382245 304.769404,44.9547567 303.49888,44.187821 C302.228356,43.4208853 301.245498,42.2704818 300.550305,40.7366104 C300.202709,39.9696747 299.942012,39.1188555 299.768214,38.1841526 L299.737814,38.0047307 L327.051518,38.0044021 C327.099462,37.636912 327.139416,37.2853999 327.171379,36.9498655 L327.21333,36.4585473 C327.249288,35.9792125 327.267267,35.4639276 327.267267,34.9126926 C327.267267,31.3656151 326.482179,28.1001467 324.912003,25.1162876 C323.341828,22.1324285 321.100432,19.7597212 318.187815,17.9981658 C315.275199,16.2366104 311.925091,15.3558327 308.137491,15.3558327 C304.325919,15.3558327 300.927867,16.2426021 297.943334,18.0161409 C294.958801,19.7896796 292.627509,22.1923453 290.949459,25.2241379 C289.271408,28.2559305 288.432383,31.5813157 288.432383,35.2002935 C288.432383,38.7953045 289.271408,42.1087063 290.949459,45.1404989 C292.627509,48.1722915 294.964794,50.5749572 297.961313,52.348496 C300.957832,54.1220347 304.349891,55.0088041 308.137491,55.0088041 Z M300.251173,30.1418745 C300.386383,29.764215 300.540032,29.40719 300.712117,29.0707997 C301.515184,27.5009782 302.569959,26.3565664 303.876441,25.6375642 C305.182923,24.918562 306.627246,24.5590609 308.209407,24.5590609 C309.479931,24.5590609 310.678539,24.8167034 311.80523,25.3319883 C312.931921,25.8472732 313.842863,26.554292 314.538055,27.4530448 C315.233248,28.3517975 315.640774,29.3524089 315.760635,30.4548789 L315.760635,30.4548789 L300.145477,30.4554541 L300.251173,30.1418745 Z" id="inclusive"></path> </g> </g> </g> </g> </g> </g> </svg> 