<?xml version="1.0" encoding="UTF-8"?>
<svg width="163px" height="166px" viewBox="0 0 163 166" version="1.1" xmlns="http://www.w3.org/2000/svg" xmlns:xlink="http://www.w3.org/1999/xlink">
    <!-- Generator: Sketch 64 (93537) - https://sketch.com -->
    <title>Group 21</title>
    <desc>Created with Sketch.</desc>
    <g id="Page-1" stroke="none" stroke-width="1" fill="none" fill-rule="evenodd">
        <g id="Group-21" fill="#000000" fill-rule="nonzero">
            <g id="man-copy">
                <path d="M151.592717,57.27005 C155.260217,53.8008667 157.566667,48.9027167 157.566667,43.4666667 C157.566667,32.9803333 149.036333,24.45 138.55,24.45 C128.063667,24.45 119.533333,32.9803333 119.533333,43.4666667 C119.533333,50.1388 122.994367,56.0095167 128.20765,59.4026333 C124.616217,61.85035 122.25,65.9688167 122.25,70.6333333 L122.25,89.65 L111.383333,89.65 L111.383333,76.0666667 C111.383333,66.3464333 104.048333,58.3159667 94.6215,57.1967 C98.2455333,53.73295 100.516667,48.8646833 100.516667,43.4666667 C100.516667,32.9803333 91.9863333,24.45 81.5,24.45 C71.0136667,24.45 62.4833333,32.9803333 62.4833333,43.4666667 C62.4833333,48.8646833 64.7544667,53.73295 68.3785,57.1967 C58.9516667,58.3159667 51.6166667,66.3464333 51.6166667,76.0666667 L51.6166667,89.65 L40.75,89.65 L40.75,70.6333333 C40.75,65.9688167 38.3837833,61.85035 34.79235,59.4026333 C40.0056333,56.0095167 43.4666667,50.1388 43.4666667,43.4666667 C43.4666667,32.9803333 34.9363333,24.45 24.45,24.45 C13.9636667,24.45 5.43333333,32.9803333 5.43333333,43.4666667 C5.43333333,48.9027167 7.73978333,53.8008667 11.4072833,57.27005 C4.9552,58.3186833 0,63.88785 0,70.6333333 L0,111.383333 C0,117.941367 4.67538333,123.429033 10.8666667,124.692283 L10.8666667,165.716667 L16.3,165.716667 L16.3,124.966667 L40.75,124.966667 L40.75,163 C40.75,164.4996 41.9670667,165.716667 43.4666667,165.716667 L59.7666667,165.716667 C61.2662667,165.716667 62.4833333,164.4996 62.4833333,163 L62.4833333,119.533333 L78.7833333,119.533333 L78.7833333,160.283333 L67.9166667,160.283333 L67.9166667,165.716667 L95.0833333,165.716667 L95.0833333,160.283333 L84.2166667,160.283333 L84.2166667,119.533333 L100.516667,119.533333 L100.516667,163 C100.516667,164.4996 101.733733,165.716667 103.233333,165.716667 L119.533333,165.716667 C121.032933,165.716667 122.25,164.4996 122.25,163 L122.25,124.966667 L146.7,124.966667 L146.7,165.716667 L152.133333,165.716667 L152.133333,124.692283 C158.324617,123.429033 163,117.944083 163,111.383333 L163,70.6333333 C163,63.88785 158.0448,58.3186833 151.592717,57.27005 Z M124.966667,43.4666667 C124.966667,35.9768167 131.06015,29.8833333 138.55,29.8833333 C146.03985,29.8833333 152.133333,35.9768167 152.133333,43.4666667 C152.133333,50.9565167 146.03985,57.05 138.55,57.05 C131.06015,57.05 124.966667,50.9565167 124.966667,43.4666667 Z M67.9166667,43.4666667 C67.9166667,35.9768167 74.01015,29.8833333 81.5,29.8833333 C88.98985,29.8833333 95.0833333,35.9768167 95.0833333,43.4666667 C95.0833333,50.9565167 88.98985,57.05 81.5,57.05 C74.01015,57.05 67.9166667,50.9565167 67.9166667,43.4666667 Z M85.72985,62.4833333 L81.5,73.7629333 L77.27015,62.4833333 L85.72985,62.4833333 Z M57.05,76.0666667 C57.05,68.5768167 63.1434833,62.4833333 70.6333333,62.4833333 L71.46735,62.4833333 L78.9572,82.45355 C79.3538333,83.51305 80.36715,84.2166667 81.5,84.2166667 C82.63285,84.2166667 83.6461667,83.51305 84.0455167,82.45355 L91.53265,62.4833333 L92.3666667,62.4833333 C99.8565167,62.4833333 105.95,68.5768167 105.95,76.0666667 L105.95,89.65 L95.0833333,89.65 C93.5837333,89.65 92.3666667,90.8670667 92.3666667,92.3666667 L92.3666667,103.233333 L70.6333333,103.233333 L70.6333333,92.3666667 C70.6333333,90.8670667 69.4162667,89.65 67.9166667,89.65 L57.05,89.65 L57.05,76.0666667 Z M10.8666667,43.4666667 C10.8666667,35.9768167 16.96015,29.8833333 24.45,29.8833333 C31.93985,29.8833333 38.0333333,35.9768167 38.0333333,43.4666667 C38.0333333,50.9565167 31.93985,57.05 24.45,57.05 C16.96015,57.05 10.8666667,50.9565167 10.8666667,43.4666667 Z M57.05,160.283333 L46.1833333,160.283333 L46.1833333,122.25 C46.1833333,120.7504 44.9662667,119.533333 43.4666667,119.533333 L13.5833333,119.533333 C9.08996667,119.533333 5.43333333,115.8767 5.43333333,111.383333 L5.43333333,70.6333333 C5.43333333,66.1399667 9.08996667,62.4833333 13.5833333,62.4833333 L27.1666667,62.4833333 C31.6600333,62.4833333 35.3166667,66.1399667 35.3166667,70.6333333 L35.3166667,92.3666667 C35.3166667,93.8662667 36.5337333,95.0833333 38.0333333,95.0833333 L65.2,95.0833333 L65.2,103.233333 L27.1666667,103.233333 L27.1666667,78.7833333 L21.7333333,78.7833333 L21.7333333,105.95 C21.7333333,107.4496 22.9504,108.666667 24.45,108.666667 L48.9,108.666667 C53.3933667,108.666667 57.05,112.3233 57.05,116.816667 L57.05,160.283333 Z M100.820933,114.1 L62.1790667,114.1 C61.76885,112.097817 60.9457,110.24505 59.7612333,108.666667 L67.9166667,108.666667 L95.0833333,108.666667 L103.238767,108.666667 C102.0543,110.24505 101.23115,112.097817 100.820933,114.1 Z M157.566667,111.383333 C157.566667,115.8767 153.910033,119.533333 149.416667,119.533333 L119.533333,119.533333 C118.033733,119.533333 116.816667,120.7504 116.816667,122.25 L116.816667,160.283333 L105.95,160.283333 L105.95,116.816667 C105.95,112.3233 109.606633,108.666667 114.1,108.666667 L138.55,108.666667 C140.0496,108.666667 141.266667,107.4496 141.266667,105.95 L141.266667,78.7833333 L135.833333,78.7833333 L135.833333,103.233333 L97.8,103.233333 L97.8,95.0833333 L124.966667,95.0833333 C126.466267,95.0833333 127.683333,93.8662667 127.683333,92.3666667 L127.683333,70.6333333 C127.683333,66.1399667 131.339967,62.4833333 135.833333,62.4833333 L149.416667,62.4833333 C153.910033,62.4833333 157.566667,66.1399667 157.566667,70.6333333 L157.566667,111.383333 Z" id="Shape"></path>
                <rect id="Rectangle" x="78.7833333" y="89.65" width="5.43333333" height="5.43333333"></rect>
                <path d="M67.9166667,0 L29.8833333,0 C28.3837333,0 27.1666667,1.21706667 27.1666667,2.71666667 L27.1666667,16.3 C27.1666667,17.7996 28.3837333,19.0166667 29.8833333,19.0166667 L40.75,19.0166667 L40.75,24.45 C40.75,25.4796167 41.3313667,26.4195833 42.2523167,26.8814167 C42.6353667,27.0715833 43.0537333,27.1666667 43.4666667,27.1666667 C44.0426,27.1666667 44.6158167,26.9819333 45.0966667,26.6233333 L55.2379833,19.0166667 L67.9166667,19.0166667 C69.4162667,19.0166667 70.6333333,17.7996 70.6333333,16.3 L70.6333333,2.71666667 C70.6333333,1.21706667 69.4162667,0 67.9166667,0 Z M65.2,13.5833333 L54.3333333,13.5833333 C53.7465333,13.5833333 53.1733167,13.7735 52.7033333,14.1266667 L46.1833333,19.0166667 L46.1833333,16.3 C46.1833333,14.8004 44.9662667,13.5833333 43.4666667,13.5833333 L32.6,13.5833333 L32.6,5.43333333 L65.2,5.43333333 L65.2,13.5833333 Z" id="Shape"></path>
                <rect id="Rectangle" x="95.0833333" y="8.15" width="5.43333333" height="5.43333333"></rect>
                <rect id="Rectangle" x="105.95" y="8.15" width="5.43333333" height="5.43333333"></rect>
                <rect id="Rectangle" x="116.816667" y="8.15" width="5.43333333" height="5.43333333"></rect>
            </g>
        </g>
    </g>
</svg>